Bahiana.ufo
<glyph name="asterisk" format="1">
  <advance width="523"/>
  <unicode hex="002A"/>
  <outline>
    <contour>
      <point x="459" y="580" type="line"/>
      <point x="420" y="646" type="line"/>
      <point x="281" y="549" type="line"/>
      <point x="287" y="710" type="line"/>
      <point x="210" y="710" type="line"/>
      <point x="224" y="550" type="line"/>
      <point x="93" y="632" type="line"/>
      <point x="55" y="565" type="line"/>
      <point x="197" y="499" type="line"/>
      <point x="56" y="424" type="line"/>
      <point x="95" y="358" type="line"/>
      <point x="228" y="451" type="line"/>
      <point x="223" y="284" type="line"/>
      <point x="300" y="284" type="line"/>
      <point x="285" y="453" type="line"/>
      <point x="430" y="363" type="line"/>
      <point x="468" y="430" type="line"/>
      <point x="312" y="502" type="line"/>
    </contour>
  </outline>
</glyph>
<glyph name="six" format="1">
  <advance width="339"/>
  <unicode hex="0036"/>
  <outline>
    <contour>
      <point x="119" y="82" type="line"/>
      <point x="127" y="74" type="line"/>
      <point x="212" y="69" type="line"/>
      <point x="220" y="79" type="line"/>
      <point x="220" y="321" type="line"/>
      <point x="212" y="328" type="line"/>
      <point x="119" y="328" type="line"/>
    </contour>
    <contour>
      <point x="105" y="0" type="line"/>
      <point x="105" y="0"/>
      <point x="50" y="47"/>
      <point x="50" y="47" type="curve" smooth="yes"/>
      <point x="49" y="653" type="line" smooth="yes"/>
      <point x="49" y="653"/>
      <point x="103" y="710"/>
      <point x="103" y="710" type="curve" smooth="yes"/>
      <point x="276" y="710" type="line"/>
      <point x="276" y="548" type="line"/>
      <point x="230" y="548" type="line"/>
      <point x="208" y="642" type="line"/>
      <point x="117" y="642" type="line"/>
      <point x="124" y="407" type="line"/>
      <point x="229" y="406" type="line" smooth="yes"/>
      <point x="229" y="406"/>
      <point x="291" y="353"/>
      <point x="291" y="353" type="curve" smooth="yes"/>
      <point x="291" y="47" type="line" smooth="yes"/>
      <point x="291" y="47"/>
      <point x="239" y="0"/>
      <point x="239" y="0" type="curve" smooth="yes"/>
    </contour>
  </outline>
</glyph>
<glyph name="R" format="1">
  <advance width="305"/>
  <unicode hex="0052"/>
  <outline>
    <contour>
      <point x="102" y="0" type="line"/>
      <point x="102" y="311" type="line"/>
      <point x="131" y="311" type="line"/>
      <point x="186" y="193" type="line"/>
      <point x="202" y="-3" type="line"/>
      <point x="275" y="0" type="line"/>
      <point x="254" y="206" type="line"/>
      <point x="195" y="316" type="line"/>
      <point x="251" y="332"/>
      <point x="258" y="374"/>
      <point x="258" y="384" type="curve" smooth="yes"/>
      <point x="268" y="661" type="line"/>
      <point x="267" y="688"/>
      <point x="229" y="710"/>
      <point x="178" y="710" type="curve" smooth="yes"/>
      <point x="22" y="710" type="line"/>
      <point x="22" y="681" type="line"/>
      <point x="44" y="669" type="line"/>
      <point x="44" y="0" type="line"/>
    </contour>
    <contour>
      <point x="116" y="383" type="curve"/>
      <point x="116" y="655" type="line" smooth="yes"/>
      <point x="116" y="660"/>
      <point x="120" y="664"/>
      <point x="128" y="667" type="curve"/>
      <point x="189" y="667"/>
      <point x="193" y="648"/>
      <point x="193" y="634" type="curve" smooth="yes"/>
      <point x="187" y="381" type="line" smooth="yes"/>
      <point x="187" y="377"/>
      <point x="185" y="375"/>
      <point x="181" y="375" type="curve" smooth="yes"/>
      <point x="128" y="375" type="line" smooth="yes"/>
      <point x="121" y="375"/>
      <point x="116" y="380"/>
    </contour>
    <contour>
      <point x="155" y="710" type="move" name="top"/>
    </contour>
    <contour>
      <point x="151" y="0" type="move" name="bottom"/>
    </contour>
  </outline>
</glyph>
<glyph name="i" format="1">
  <advance width="163"/>
  <unicode hex="0069"/>
  <outline>
    <contour>
      <point x="50" y="-24" type="line"/>
      <point x="125" y="-24" type="line"/>
      <point x="126" y="21" type="line"/>
      <point x="112" y="51" type="line"/>
      <point x="120" y="582" type="line"/>
      <point x="46" y="582" type="line"/>
    </contour>
    <contour>
      <point x="44" y="654" type="line"/>
      <point x="61" y="644" type="line"/>
      <point x="107" y="648" type="line"/>
      <point x="122" y="669" type="line"/>
      <point x="126" y="721" type="line"/>
      <point x="40" y="721" type="line"/>
    </contour>
  </outline>
</glyph>
<glyph name="k" format="1">
  <advance width="273"/>
  <unicode hex="006B"/>
  <outline>
    <contour>
      <point x="177" y="0" type="line"/>
      <point x="243" y="0" type="line"/>
      <point x="233" y="274" type="line"/>
      <point x="177" y="306" type="line"/>
      <point x="216" y="333" type="line"/>
      <point x="251" y="581" type="line"/>
      <point x="180" y="581" type="line"/>
      <point x="172" y="353" type="line"/>
      <point x="127" y="324" type="line"/>
      <point x="106" y="336" type="line"/>
      <point x="106" y="721" type="line"/>
      <point x="42" y="721" type="line"/>
      <point x="61" y="0" type="line"/>
      <point x="116" y="0" type="line"/>
      <point x="116" y="267" type="line"/>
      <point x="125" y="274" type="line"/>
      <point x="177" y="233" type="line"/>
    </contour>
    <contour>
      <point x="139" y="582" type="move" name="top"/>
    </contour>
    <contour>
      <point x="151" y="0" type="move" name="bottom"/>
    </contour>
  </outline>
</glyph>
<glyph name="p" format="1">
  <advance width="286"/>
  <unicode hex="0070"/>
  <outline>
    <contour>
      <point x="190" y="582" type="line"/>
      <point x="224" y="582"/>
      <point x="237" y="558"/>
      <point x="237" y="526" type="curve" smooth="yes"/>
      <point x="241" y="45" type="line" smooth="yes"/>
      <point x="241" y="18"/>
      <point x="212" y="-3"/>
      <point x="175" y="-3" type="curve" smooth="yes"/>
      <point x="148" y="-3"/>
      <point x="126" y="-1"/>
      <point x="109" y="1" type="curve"/>
      <point x="104" y="-129" type="line"/>
      <point x="45" y="-129" type="line"/>
      <point x="45" y="-129"/>
      <point x="46" y="582"/>
      <point x="46" y="582" type="curve"/>
    </contour>
    <contour>
      <point x="173" y="64" type="line"/>
      <point x="179" y="522" type="line" smooth="yes"/>
      <point x="179" y="525"/>
      <point x="179" y="527"/>
      <point x="170" y="528" type="curve" smooth="yes"/>
      <point x="124" y="531" type="line"/>
      <point x="115" y="525" type="line"/>
      <point x="106" y="61" type="line"/>
      <point x="164" y="55" type="line"/>
    </contour>
  </outline>
</glyph>
<glyph name="z" format="1">
  <advance width="237"/>
  <unicode hex="007A"/>
  <outline>
    <contour>
      <point x="23" y="48" type="line"/>
      <point x="46" y="0" type="line"/>
      <point x="210" y="0" type="line"/>
      <point x="210" y="53" type="line"/>
      <point x="98" y="69" type="line"/>
      <point x="214" y="557" type="line"/>
      <point x="189" y="582" type="line"/>
      <point x="29" y="582" type="line"/>
      <point x="30" y="527" type="line"/>
      <point x="137" y="514" type="line"/>
    </contour>
    <contour>
      <point x="119" y="582" type="move" name="top"/>
    </contour>
    <contour>
      <point x="118" y="0" type="move" name="bottom"/>
    </contour>
  </outline>
</glyph>
<glyph name="registered" format="1">
  <advance width="571"/>
  <unicode hex="00AE"/>
  <outline>
    <contour>
      <point x="490" y="710" type="line"/>
      <point x="60" y="710" type="line"/>
      <point x="60" y="0" type="line"/>
      <point x="527" y="0" type="line"/>
    </contour>
    <contour>
      <point x="425" y="670" type="line"/>
      <point x="470" y="74" type="line"/>
      <point x="461" y="68" type="line"/>
      <point x="144" y="56" type="line"/>
      <point x="135" y="62" type="line"/>
      <point x="116" y="649" type="line"/>
      <point x="125" y="658" type="line"/>
    </contour>
    <contour>
      <point x="170" y="591" type="line"/>
      <point x="170" y="562" type="line"/>
      <point x="192" y="550" type="line"/>
      <point x="192" y="121" type="line"/>
      <point x="240" y="121" type="line"/>
      <point x="240" y="340" type="line"/>
      <point x="280" y="340" type="line"/>
      <point x="323" y="245" type="line"/>
      <point x="323" y="121" type="line"/>
      <point x="388" y="121" type="line"/>
      <point x="367" y="277" type="line"/>
      <point x="327" y="346" type="line"/>
      <point x="359" y="358"/>
      <point x="368" y="374"/>
      <point x="371" y="413" type="curve"/>
      <point x="381" y="542" type="line"/>
      <point x="380" y="569"/>
      <point x="357" y="591"/>
      <point x="306" y="591" type="curve"/>
    </contour>
    <contour>
      <point x="254" y="529" type="line"/>
      <point x="254" y="534"/>
      <point x="259" y="537"/>
      <point x="266" y="541" type="curve"/>
      <point x="283" y="551" type="line"/>
      <point x="312" y="551"/>
      <point x="315" y="534"/>
      <point x="315" y="519" type="curve"/>
      <point x="315" y="392" type="line"/>
      <point x="315" y="388"/>
      <point x="313" y="386"/>
      <point x="309" y="386" type="curve"/>
      <point x="266" y="386" type="line"/>
      <point x="259" y="386"/>
      <point x="254" y="391"/>
      <point x="254" y="394" type="curve"/>
    </contour>
  </outline>
</glyph>
<glyph name="uni00B9" format="1">
  <advance width="245"/>
  <unicode hex="00B9"/>
  <outline>
    <contour>
      <point x="89" y="394" type="line"/>
      <point x="45" y="394" type="line"/>
      <point x="45" y="345" type="line"/>
      <point x="200" y="345" type="line"/>
      <point x="194" y="399" type="line"/>
      <point x="147" y="397" type="line"/>
      <point x="147" y="710" type="line"/>
      <point x="112" y="710" type="line"/>
      <point x="47" y="679" type="line"/>
      <point x="47" y="652" type="line"/>
      <point x="97" y="649" type="line"/>
    </contour>
  </outline>
</glyph>
<glyph name="eth" format="1">
  <advance width="292"/>
  <unicode hex="00F0"/>
  <outline>
    <contour>
      <point x="43" y="528" type="line"/>
      <point x="41" y="39" type="line"/>
      <point x="98" y="0" type="line"/>
      <point x="185" y="0" type="line"/>
      <point x="248" y="36" type="line"/>
      <point x="250" y="550" type="line"/>
      <point x="209" y="721" type="line"/>
      <point x="152" y="721" type="line"/>
      <point x="140" y="710" type="line"/>
      <point x="177" y="582" type="line"/>
      <point x="87" y="582" type="line"/>
    </contour>
    <contour>
      <point x="108" y="517"/>
      <point x="108" y="520"/>
      <point x="117" y="520" type="curve" smooth="yes"/>
      <point x="169" y="520" type="line" smooth="yes"/>
      <point x="174" y="520"/>
      <point x="178" y="517"/>
      <point x="178" y="511" type="curve" smooth="yes"/>
      <point x="178" y="69" type="line" smooth="yes"/>
      <point x="178" y="65"/>
      <point x="178" y="63"/>
      <point x="169" y="63" type="curve" smooth="yes"/>
      <point x="127" y="63" type="line" smooth="yes"/>
      <point x="118" y="63"/>
      <point x="118" y="65"/>
      <point x="118" y="69" type="curve"/>
      <point x="108" y="511" type="line"/>
    </contour>
    <component base="baraccent" xOffset="89" yOffset="274" xScale="0.993" yScale="0.993" xyScale="0.122" yxScale="-0.122"/>
  </outline>
</glyph>
<glyph name="gcommaaccent" format="1">
  <advance width="282"/>
  <unicode hex="0123"/>
  <outline>
    <contour>
      <point x="191" y="-153" type="line"/>
      <point x="110" y="-153" type="line"/>
      <point x="110" y="-230" type="line"/>
      <point x="152" y="-230" type="line"/>
      <point x="106" y="-299" type="line"/>
      <point x="161" y="-315" type="line"/>
      <point x="194" y="-230" type="line"/>
    </contour>
    <component base="g"/>
  </outline>
</glyph>
<glyph name="uni0237" format="1">
  <advance width="168"/>
  <unicode hex="0237"/>
  <outline>
    <contour>
      <point x="-20" y="-141" type="line"/>
      <point x="34" y="-178" type="line"/>
      <point x="94" y="-81" type="line"/>
      <point x="114" y="17" type="line"/>
      <point x="126" y="582" type="line"/>
      <point x="47" y="582" type="line"/>
      <point x="50" y="-17" type="line"/>
    </contour>
    <contour>
      <point x="84" y="582" type="move" name="top"/>
    </contour>
    <contour>
      <point x="84" y="0" type="move" name="bottom"/>
    </contour>
  </outline>
</glyph>
<glyph name="uni0259" format="1">
  <advance width="283"/>
  <unicode hex="0259"/>
  <outline>
    <contour>
      <point x="162" y="523" type="line" smooth="yes"/>
      <point x="168" y="522"/>
      <point x="170" y="519"/>
      <point x="170" y="515" type="curve" smooth="yes"/>
      <point x="169" y="313" type="line"/>
      <point x="40" y="322" type="line"/>
      <point x="40" y="51" type="line" smooth="yes"/>
      <point x="40" y="26"/>
      <point x="57" y="0"/>
      <point x="83" y="0" type="curve" smooth="yes"/>
      <point x="187" y="0" type="line" smooth="yes"/>
      <point x="218" y="0"/>
      <point x="238" y="12"/>
      <point x="238" y="44" type="curve" smooth="yes"/>
      <point x="238" y="546" type="line" smooth="yes"/>
      <point x="238" y="569"/>
      <point x="218" y="582"/>
      <point x="187" y="582" type="curve" smooth="yes"/>
      <point x="43" y="582" type="line"/>
      <point x="43" y="534" type="line"/>
    </contour>
    <contour>
      <point x="101" y="61"/>
      <point x="101" y="67" type="curve" smooth="yes"/>
      <point x="107" y="247" type="line" smooth="yes"/>
      <point x="107" y="258"/>
      <point x="111" y="258"/>
      <point x="116" y="258" type="curve" smooth="yes"/>
      <point x="172" y="258" type="line"/>
      <point x="177" y="67" type="line" smooth="yes"/>
      <point x="177" y="61"/>
      <point x="177" y="58"/>
      <point x="168" y="58" type="curve" smooth="yes"/>
      <point x="110" y="58" type="line"/>
      <point x="105" y="58"/>
    </contour>
  </outline>
</glyph>
<glyph name="caron" format="1">
  <advance width="228"/>
  <unicode hex="02C7"/>
  <outline>
    <contour>
      <point x="94" y="771" type="line"/>
      <point x="134" y="768" type="line"/>
      <point x="208" y="881" type="line"/>
      <point x="179" y="900" type="line"/>
      <point x="114" y="838" type="line"/>
      <point x="49" y="900" type="line"/>
      <point x="20" y="881" type="line"/>
    </contour>
    <contour>
      <point x="114" y="900" type="move" name="top"/>
    </contour>
    <contour>
      <point x="114" y="710" type="move" name="_top"/>
    </contour>
  </outline>
</glyph>
<glyph name="uni0326" format="1">
  <advance width="153"/>
  <unicode hex="0326"/>
  <outline>
    <contour>
      <point x="115" y="-58" type="line"/>
      <point x="34" y="-58" type="line"/>
      <point x="34" y="-140" type="line"/>
      <point x="76" y="-140" type="line"/>
      <point x="30" y="-214" type="line"/>
      <point x="85" y="-230" type="line"/>
      <point x="118" y="-140" type="line"/>
    </contour>
    <contour>
      <point x="75" y="0" type="move" name="_bottom"/>
    </contour>
    <contour>
      <point x="75" y="-226" type="move" name="bottom"/>
    </contour>
  </outline>
</glyph>
<glyph name="uni1E9E" format="1">
  <advance width="393"/>
  <unicode hex="1E9E"/>
  <outline>
    <contour>
      <point x="353" y="80" type="line"/>
      <point x="353" y="345" type="line"/>
      <point x="218" y="449" type="line"/>
      <point x="217" y="454" type="line"/>
      <point x="320" y="710" type="line"/>
      <point x="135" y="710" type="line"/>
      <point x="44" y="640" type="line"/>
      <point x="44" y="-1" type="line"/>
      <point x="126" y="-1" type="line"/>
      <point x="105" y="616" type="line"/>
      <point x="191" y="650" type="line"/>
      <point x="223" y="628" type="line"/>
      <point x="150" y="459" type="line"/>
      <point x="176" y="396" type="line"/>
      <point x="285" y="276" type="line"/>
      <point x="275" y="78" type="line"/>
      <point x="172" y="64" type="line"/>
      <point x="176" y="0" type="line"/>
      <point x="279" y="0" type="line"/>
    </contour>
  </outline>
</glyph>
<glyph name="arrowdown" format="1">
  <advance width="486"/>
  <unicode hex="2193"/>
  <note>
    arrowdown
  </note>
  <outline>
    <contour>
      <point x="43" y="325" type="line"/>
      <point x="78" y="355" type="line"/>
      <point x="200" y="226" type="line"/>
      <point x="210" y="225" type="line"/>
      <point x="221" y="650" type="line"/>
      <point x="273" y="650" type="line"/>
      <point x="272" y="213" type="line"/>
      <point x="281" y="212" type="line"/>
      <point x="386" y="352" type="line"/>
      <point x="414" y="354" type="line"/>
      <point x="443" y="317" type="line"/>
      <point x="264" y="118" type="line"/>
      <point x="223" y="118" type="line"/>
    </contour>
  </outline>
</glyph>
<glyph name="uni2206" format="1">
  <advance width="330"/>
  <unicode hex="2206"/>
  <outline>
    <contour>
      <point x="144" y="700" type="line"/>
      <point x="15" y="10" type="line"/>
      <point x="315" y="0" type="line"/>
      <point x="214" y="710" type="line"/>
    </contour>
    <contour>
      <point x="165" y="664" type="line"/>
      <point x="178" y="662" type="line"/>
      <point x="238" y="74" type="line"/>
      <point x="92" y="64" type="line"/>
    </contour>
  </outline>
</glyph>
<glyph name="White_Right-Pointing_Triangle" format="1">
  <advance width="620"/>
  <unicode hex="25B7"/>
  <note>
    White_Right-Pointing_Triangle
  </note>
  <outline>
    <contour>
      <point x="70" y="59" type="line"/>
      <point x="98" y="42" type="line"/>
      <point x="548" y="310" type="line"/>
      <point x="572" y="356" type="line"/>
      <point x="111" y="665" type="line"/>
      <point x="84" y="650" type="line"/>
    </contour>
    <contour>
      <point x="498" y="345" type="line"/>
      <point x="500" y="338" type="line"/>
      <point x="131" y="125" type="line"/>
      <point x="136" y="578" type="line"/>
    </contour>
  </outline>
</glyph>
<glyph name="uni25CF" format="1">
  <advance width="700"/>
  <unicode hex="25CF"/>
  <note>
    uni25CF
  </note>
  <outline>
    <contour>
      <point x="583" y="187" type="line"/>
      <point x="632" y="270"/>
      <point x="627" y="399"/>
      <point x="612" y="458" type="curve" smooth="yes"/>
      <point x="587" y="557"/>
      <point x="400" y="650"/>
      <point x="285" y="641" type="curve"/>
      <point x="164" y="566"/>
      <point x="74" y="426"/>
      <point x="79" y="252" type="curve"/>
      <point x="122" y="121"/>
      <point x="287" y="38"/>
      <point x="440" y="69" type="curve"/>
    </contour>
  </outline>
</glyph>
<glyph name="A_S" format="1">
  <advance width="497"/>
  <outline>
    <contour>
      <point x="250" y="140" type="line"/>
      <point x="250" y="710" type="line"/>
      <point x="77" y="710" type="line"/>
      <point x="32" y="140" type="line"/>
      <point x="74" y="140" type="line"/>
      <point x="120" y="423" type="line"/>
      <point x="171" y="423" type="line"/>
      <point x="197" y="140" type="line"/>
    </contour>
    <contour>
      <point x="192" y="466" type="line"/>
      <point x="192" y="462"/>
      <point x="190" y="460"/>
      <point x="186" y="460" type="curve"/>
      <point x="143" y="460" type="line"/>
      <point x="139" y="460"/>
      <point x="137" y="462"/>
      <point x="137" y="465" type="curve"/>
      <point x="137" y="677" type="line"/>
      <point x="137" y="681"/>
      <point x="139" y="683"/>
      <point x="143" y="683" type="curve"/>
      <point x="186" y="683" type="line"/>
      <point x="190" y="683"/>
      <point x="192" y="681"/>
      <point x="192" y="677" type="curve"/>
    </contour>
    <contour>
      <point x="460" y="0" type="line"/>
      <point x="460" y="84" type="line"/>
      <point x="41" y="84" type="line"/>
      <point x="33" y="15" type="line"/>
    </contour>
    <contour>
      <point x="360" y="647" type="line"/>
      <point x="457" y="666" type="line"/>
      <point x="457" y="710" type="line"/>
      <point x="340" y="710" type="line"/>
      <point x="319" y="710"/>
      <point x="300" y="684"/>
      <point x="300" y="663" type="curve"/>
      <point x="300" y="439" type="line"/>
      <point x="380" y="409" type="line"/>
      <point x="394" y="203" type="line"/>
      <point x="300" y="203" type="line"/>
      <point x="300" y="140" type="line"/>
      <point x="393" y="140" type="line"/>
      <point x="422" y="140"/>
      <point x="457" y="172"/>
      <point x="457" y="200" type="curve"/>
      <point x="457" y="455" type="line"/>
      <point x="365" y="488" type="line"/>
    </contour>
  </outline>
</glyph>
<glyph name="Dcroat.alt" format="1">
  <advance width="315"/>
  <outline>
    <contour>
      <point x="177" y="338" type="line"/>
      <point x="177" y="387" type="line"/>
      <point x="8" y="396" type="line"/>
      <point x="11" y="338" type="line"/>
    </contour>
    <component base="D.alt"/>
  </outline>
</glyph>
<glyph name="F.alt" format="1">
  <advance width="286"/>
  <outline>
    <contour>
      <point x="44" y="710" type="line"/>
      <point x="44" y="-20" type="line"/>
      <point x="126" y="-20" type="line"/>
      <point x="106" y="372" type="line"/>
      <point x="258" y="389" type="line"/>
      <point x="258" y="447" type="line"/>
      <point x="123" y="447" type="line"/>
      <point x="123" y="616" type="line"/>
      <point x="258" y="628" type="line"/>
      <point x="258" y="690" type="line"/>
    </contour>
  </outline>
</glyph>
<glyph name="F_I" format="1">
  <advance width="429"/>
  <outline>
    <contour>
      <point x="121" y="0" type="line"/>
      <point x="121" y="355" type="line"/>
      <point x="296" y="371" type="line"/>
      <point x="313" y="329" type="line"/>
      <point x="313" y="0" type="line"/>
      <point x="384" y="0" type="line"/>
      <point x="393" y="423" type="line"/>
      <point x="116" y="423" type="line"/>
      <point x="116" y="625" type="line"/>
      <point x="382" y="625" type="line"/>
      <point x="382" y="710" type="line"/>
      <point x="59" y="710" type="line"/>
      <point x="36" y="0" type="line"/>
    </contour>
  </outline>
</glyph>
<glyph name="F_O_R" format="1">
  <advance width="678"/>
  <outline>
    <contour>
      <point x="47" y="84" type="line"/>
      <point x="47" y="0" type="line"/>
      <point x="639" y="25" type="line"/>
      <point x="632" y="84" type="line"/>
    </contour>
    <contour>
      <point x="45" y="140" type="line"/>
      <point x="118" y="140" type="line"/>
      <point x="118" y="395" type="line"/>
      <point x="187" y="413" type="line"/>
      <point x="187" y="458" type="line"/>
      <point x="113" y="458" type="line"/>
      <point x="113" y="647" type="line"/>
      <point x="201" y="647" type="line"/>
      <point x="201" y="710" type="line"/>
      <point x="68" y="710" type="line"/>
    </contour>
    <contour>
      <point x="275" y="710" type="line"/>
      <point x="232" y="678" type="line"/>
      <point x="232" y="182" type="line"/>
      <point x="291" y="140" type="line"/>
      <point x="337" y="140" type="line"/>
      <point x="400" y="176" type="line"/>
      <point x="400" y="682" type="line"/>
      <point x="360" y="710" type="line"/>
    </contour>
    <contour>
      <point x="336" y="211" type="line"/>
      <point x="336" y="207"/>
      <point x="333" y="205"/>
      <point x="327" y="205" type="curve"/>
      <point x="305" y="205" type="line"/>
      <point x="299" y="205"/>
      <point x="296" y="207"/>
      <point x="296" y="211" type="curve"/>
      <point x="296" y="654" type="line"/>
      <point x="296" y="660"/>
      <point x="299" y="663"/>
      <point x="305" y="663" type="curve"/>
      <point x="339" y="663" type="line"/>
      <point x="345" y="663"/>
      <point x="348" y="660"/>
      <point x="348" y="654" type="curve"/>
    </contour>
    <contour>
      <point x="502" y="421" type="line"/>
      <point x="536" y="421" type="line"/>
      <point x="571" y="298" type="line"/>
      <point x="577" y="137" type="line"/>
      <point x="640" y="140" type="line"/>
      <point x="629" y="311" type="line"/>
      <point x="590" y="421" type="line"/>
      <point x="619" y="437"/>
      <point x="623" y="479"/>
      <point x="623" y="489" type="curve"/>
      <point x="633" y="661" type="line"/>
      <point x="632" y="688"/>
      <point x="594" y="710"/>
      <point x="543" y="710" type="curve"/>
      <point x="427" y="710" type="line"/>
      <point x="427" y="681" type="line"/>
      <point x="449" y="669" type="line"/>
      <point x="449" y="140" type="line"/>
      <point x="502" y="140" type="line"/>
    </contour>
    <contour>
      <point x="511" y="660" type="line"/>
      <point x="511" y="665"/>
      <point x="515" y="669"/>
      <point x="523" y="672" type="curve"/>
      <point x="559" y="672"/>
      <point x="567" y="660"/>
      <point x="568" y="639" type="curve"/>
      <point x="562" y="481" type="line"/>
      <point x="562" y="477"/>
      <point x="560" y="475"/>
      <point x="556" y="475" type="curve"/>
      <point x="523" y="475" type="line"/>
      <point x="516" y="475"/>
      <point x="511" y="480"/>
      <point x="511" y="483" type="curve"/>
    </contour>
  </outline>
</glyph>
<glyph name="Lcaron.alt" format="1">
  <advance width="284"/>
  <outline>
    <contour>
      <point x="254" y="753" type="line"/>
      <point x="168" y="749" type="line"/>
      <point x="200" y="657" type="line"/>
      <point x="149" y="582" type="line"/>
      <point x="192" y="567" type="line"/>
      <point x="260" y="657" type="line"/>
    </contour>
    <component base="L.alt"/>
  </outline>
</glyph>
<glyph name="N.alt" format="1">
  <advance width="320"/>
  <outline>
    <contour>
      <point x="200" y="-20" type="line"/>
      <point x="268" y="-20" type="line"/>
      <point x="288" y="710" type="line"/>
      <point x="229" y="710" type="line"/>
      <point x="229" y="131" type="line"/>
      <point x="222" y="131" type="line"/>
      <point x="121" y="710" type="line"/>
      <point x="60" y="710" type="line"/>
      <point x="28" y="-20" type="line"/>
      <point x="79" y="-20" type="line"/>
      <point x="98" y="554" type="line"/>
      <point x="102" y="554" type="line"/>
    </contour>
    <contour>
      <point x="176" y="710" type="move" name="top"/>
    </contour>
    <contour>
      <point x="165" y="0" type="move" name="bottom"/>
    </contour>
  </outline>
</glyph>
<glyph name="acute.loclPLK" format="1">
  <advance width="154"/>
  <outline>
    <contour>
      <point x="124" y="882" type="line"/>
      <point x="61" y="902" type="line"/>
      <point x="30" y="774" type="line"/>
      <point x="71" y="766" type="line"/>
    </contour>
    <contour>
      <point x="77" y="900" type="move" name="top"/>
    </contour>
    <contour>
      <point x="58" y="710" type="move" name="_top"/>
    </contour>
  </outline>
</glyph>
<glyph name="ae.alt" format="1">
  <advance width="408"/>
  <outline>
    <contour>
      <point x="78" y="0" type="line"/>
      <point x="356" y="0" type="line"/>
      <point x="356" y="57" type="line"/>
      <point x="259" y="57" type="line"/>
      <point x="247" y="63" type="line"/>
      <point x="241" y="259" type="line"/>
      <point x="330" y="256" type="line" smooth="yes"/>
      <point x="362" y="255"/>
      <point x="367" y="279"/>
      <point x="367" y="299" type="curve" smooth="yes"/>
      <point x="368" y="540" type="line"/>
      <point x="329" y="582" type="line"/>
      <point x="38" y="582" type="line"/>
      <point x="41" y="460" type="line"/>
      <point x="81" y="460" type="line"/>
      <point x="85" y="524" type="line"/>
      <point x="86" y="529"/>
      <point x="89" y="532"/>
      <point x="96" y="532" type="curve"/>
      <point x="157" y="525" type="line"/>
      <point x="163" y="525"/>
      <point x="165" y="521"/>
      <point x="165" y="517" type="curve" smooth="yes"/>
      <point x="169" y="324" type="line"/>
      <point x="76" y="324" type="line"/>
      <point x="35" y="292" type="line"/>
      <point x="35" y="38" type="line"/>
    </contour>
    <contour>
      <point x="102" y="247" type="line" smooth="yes"/>
      <point x="102" y="258"/>
      <point x="106" y="257"/>
      <point x="111" y="258" type="curve" smooth="yes"/>
      <point x="167" y="271" type="line"/>
      <point x="172" y="67" type="line" smooth="yes"/>
      <point x="172" y="61"/>
      <point x="172" y="58"/>
      <point x="163" y="58" type="curve" smooth="yes"/>
      <point x="111" y="58" type="line" smooth="yes"/>
      <point x="106" y="58"/>
      <point x="102" y="61"/>
      <point x="102" y="67" type="curve" smooth="yes"/>
    </contour>
    <contour>
      <point x="238" y="524" type="line"/>
      <point x="297" y="522" type="line"/>
      <point x="306" y="521"/>
      <point x="306" y="519"/>
      <point x="306" y="516" type="curve" smooth="yes"/>
      <point x="302" y="320" type="line"/>
      <point x="297" y="314" type="line"/>
      <point x="243" y="308" type="line"/>
      <point x="233" y="516" type="line"/>
    </contour>
  </outline>
</glyph>
<glyph name="c.alt" format="1">
  <advance width="257"/>
  <outline>
    <contour>
      <point x="160" y="524" type="line" smooth="yes"/>
      <point x="166" y="524"/>
      <point x="168" y="521"/>
      <point x="169" y="517" type="curve" smooth="yes"/>
      <point x="180" y="463" type="line"/>
      <point x="221" y="463" type="line"/>
      <point x="224" y="582" type="line"/>
      <point x="96" y="582" type="line" smooth="yes"/>
      <point x="65" y="582"/>
      <point x="45" y="572"/>
      <point x="45" y="540" type="curve" smooth="yes"/>
      <point x="45" y="36" type="line" smooth="yes"/>
      <point x="45" y="13"/>
      <point x="65" y="0"/>
      <point x="96" y="0" type="curve" smooth="yes"/>
      <point x="227" y="0" type="line"/>
      <point x="227" y="122" type="line"/>
      <point x="184" y="122" type="line"/>
      <point x="181" y="60" type="line" smooth="yes"/>
      <point x="180" y="55"/>
      <point x="179" y="51"/>
      <point x="173" y="51" type="curve" smooth="yes"/>
      <point x="121" y="57" type="line" smooth="yes"/>
      <point x="115" y="57"/>
      <point x="113" y="61"/>
      <point x="113" y="65" type="curve" smooth="yes"/>
      <point x="103" y="515" type="line" smooth="yes"/>
      <point x="103" y="521"/>
      <point x="103" y="524"/>
      <point x="112" y="524" type="curve" smooth="yes"/>
    </contour>
    <contour>
      <point x="140" y="582" type="move" name="top"/>
    </contour>
    <contour>
      <point x="137" y="0" type="move" name="bottom"/>
    </contour>
  </outline>
</glyph>
<glyph name="f_f.alt" format="1">
  <advance width="370"/>
  <outline>
    <contour>
      <point x="81" y="-129" type="line"/>
      <point x="124" y="-80" type="line"/>
      <point x="109" y="522" type="line"/>
      <point x="229" y="522" type="line"/>
      <point x="237" y="-56" type="line" smooth="yes"/>
      <point x="237" y="-61"/>
      <point x="235" y="-65"/>
      <point x="231" y="-65" type="curve"/>
      <point x="158" y="-74" type="line"/>
      <point x="158" y="-129" type="line"/>
      <point x="266" y="-129" type="line"/>
      <point x="309" y="-80" type="line"/>
      <point x="294" y="522" type="line"/>
      <point x="386" y="522" type="line"/>
      <point x="386" y="583" type="line"/>
      <point x="293" y="583" type="line"/>
      <point x="293" y="637" type="line" smooth="yes"/>
      <point x="293" y="642"/>
      <point x="295" y="646"/>
      <point x="299" y="646" type="curve"/>
      <point x="408" y="655" type="line"/>
      <point x="408" y="710" type="line"/>
      <point x="270" y="710" type="line"/>
      <point x="227" y="661" type="line"/>
      <point x="228" y="583" type="line"/>
      <point x="108" y="583" type="line"/>
      <point x="108" y="637" type="line" smooth="yes"/>
      <point x="108" y="642"/>
      <point x="110" y="646"/>
      <point x="114" y="646" type="curve"/>
      <point x="195" y="655" type="line"/>
      <point x="195" y="710" type="line"/>
      <point x="85" y="710" type="line"/>
      <point x="42" y="661" type="line"/>
      <point x="43" y="583" type="line"/>
      <point x="3" y="565" type="line"/>
      <point x="3" y="522" type="line"/>
      <point x="44" y="522" type="line"/>
      <point x="52" y="-56" type="line" smooth="yes"/>
      <point x="52" y="-61"/>
      <point x="50" y="-65"/>
      <point x="46" y="-65" type="curve"/>
      <point x="-57" y="-74" type="line"/>
      <point x="-57" y="-129" type="line"/>
    </contour>
  </outline>
</glyph>
<glyph name="jcircumflex.alt" format="1">
  <advance width="167"/>
  <outline>
    <component base="uni0237.alt"/>
    <component base="circumflex" xOffset="-30" yOffset="-128"/>
    <contour>
      <point x="81" y="582" type="move" name="top"/>
    </contour>
    <contour>
      <point x="47" y="0" type="move" name="bottom"/>
    </contour>
  </outline>
</glyph>
<glyph name="k.alt" format="1">
  <advance width="274"/>
  <outline>
    <contour>
      <point x="205" y="0" type="line"/>
      <point x="263" y="0" type="line"/>
      <point x="278" y="17" type="line"/>
      <point x="184" y="304" type="line"/>
      <point x="205" y="322" type="line"/>
      <point x="244" y="582" type="line"/>
      <point x="175" y="582" type="line"/>
      <point x="160" y="357" type="line"/>
      <point x="107" y="308" type="line"/>
      <point x="107" y="721" type="line"/>
      <point x="45" y="721" type="line"/>
      <point x="56" y="0" type="line"/>
      <point x="117" y="0" type="line"/>
      <point x="117" y="255" type="line"/>
      <point x="142" y="277" type="line"/>
    </contour>
    <contour>
      <point x="139" y="582" type="move" name="top"/>
    </contour>
    <contour>
      <point x="151" y="0" type="move" name="bottom"/>
    </contour>
  </outline>
</glyph>
<glyph name="m.alt" format="1">
  <advance width="430"/>
  <outline>
    <contour>
      <point x="116" y="522" type="line"/>
      <point x="176" y="515" type="line" smooth="yes"/>
      <point x="185" y="514"/>
      <point x="185" y="512"/>
      <point x="185" y="506" type="curve" smooth="yes"/>
      <point x="180" y="0" type="line"/>
      <point x="225" y="0" type="line"/>
      <point x="252" y="13" type="line"/>
      <point x="246" y="520" type="line" smooth="yes"/>
      <point x="246" y="520"/>
      <point x="306" y="522"/>
      <point x="306" y="522" type="curve" smooth="yes"/>
      <point x="315" y="522"/>
      <point x="315" y="512"/>
      <point x="315" y="512" type="curve"/>
      <point x="315" y="0" type="line"/>
      <point x="385" y="1" type="line"/>
      <point x="377" y="553" type="line"/>
      <point x="337" y="582" type="line"/>
      <point x="28" y="582" type="line"/>
      <point x="28" y="546" type="line"/>
      <point x="49" y="522" type="line"/>
      <point x="41" y="0" type="line"/>
      <point x="115" y="0" type="line"/>
    </contour>
  </outline>
</glyph>
<glyph name="n.alt" format="1">
  <advance width="291"/>
  <outline>
    <contour>
      <point x="116" y="520" type="line"/>
      <point x="176" y="522" type="line" smooth="yes"/>
      <point x="185" y="522"/>
      <point x="185" y="519"/>
      <point x="185" y="513" type="curve"/>
      <point x="174" y="22" type="line"/>
      <point x="174" y="22"/>
      <point x="186" y="0"/>
      <point x="200" y="0" type="curve" smooth="yes"/>
      <point x="221" y="0"/>
      <point x="246" y="0"/>
      <point x="246" y="0" type="curve"/>
      <point x="246" y="554" type="line"/>
      <point x="206" y="582" type="line"/>
      <point x="28" y="582" type="line"/>
      <point x="28" y="534" type="line"/>
      <point x="49" y="522" type="line"/>
      <point x="49" y="0" type="line"/>
      <point x="115" y="0" type="line"/>
    </contour>
    <contour>
      <point x="146" y="582" type="move" name="top"/>
    </contour>
    <contour>
      <point x="143" y="0" type="move" name="bottom"/>
    </contour>
  </outline>
</glyph>
<glyph name="o.alt" format="1">
  <advance width="289"/>
  <outline>
    <contour>
      <point x="45" y="17"/>
      <point x="65" y="0"/>
      <point x="121" y="0" type="curve"/>
      <point x="239" y="0" type="line"/>
      <point x="246" y="537" type="line" smooth="yes"/>
      <point x="246" y="564"/>
      <point x="217" y="585"/>
      <point x="180" y="585" type="curve" smooth="yes"/>
      <point x="109" y="585"/>
      <point x="70" y="577"/>
      <point x="45" y="561" type="curve"/>
      <point x="45" y="56" type="line" smooth="yes"/>
    </contour>
    <contour>
      <point x="169" y="51" type="line"/>
      <point x="106" y="57" type="line"/>
      <point x="112" y="521" type="line"/>
      <point x="121" y="527" type="line"/>
      <point x="175" y="524" type="line"/>
      <point x="184" y="523"/>
      <point x="184" y="521"/>
      <point x="184" y="518" type="curve" smooth="yes"/>
      <point x="178" y="60" type="line"/>
    </contour>
    <contour>
      <point x="148" y="582" type="move" name="top"/>
    </contour>
    <contour>
      <point x="143" y="0" type="move" name="bottom"/>
    </contour>
  </outline>
</glyph>
<glyph name="one.ss01" format="1">
  <advance width="339"/>
  <outline>
    <contour>
      <point x="53" y="625" type="line"/>
      <point x="148" y="625" type="line"/>
      <point x="141" y="67" type="line"/>
      <point x="37" y="67" type="line"/>
      <point x="37" y="0" type="line"/>
      <point x="312" y="0" type="line"/>
      <point x="312" y="35" type="line"/>
      <point x="291" y="67" type="line"/>
      <point x="223" y="67" type="line"/>
      <point x="223" y="710" type="line"/>
      <point x="53" y="687" type="line"/>
    </contour>
  </outline>
</glyph>
<glyph name="six.ss01" format="1">
  <advance width="339"/>
  <outline>
    <contour>
      <point x="119" y="82" type="line"/>
      <point x="127" y="74" type="line"/>
      <point x="212" y="69" type="line"/>
      <point x="220" y="79" type="line"/>
      <point x="220" y="301" type="line"/>
      <point x="212" y="308" type="line"/>
      <point x="119" y="334" type="line"/>
    </contour>
    <contour>
      <point x="90" y="0" type="line"/>
      <point x="69" y="0"/>
      <point x="50" y="14"/>
      <point x="50" y="47" type="curve" smooth="yes"/>
      <point x="49" y="653" type="line" smooth="yes"/>
      <point x="49" y="702"/>
      <point x="90" y="710"/>
      <point x="122" y="710" type="curve" smooth="yes"/>
      <point x="241" y="710" type="line"/>
      <point x="266" y="673" type="line"/>
      <point x="266" y="642" type="line"/>
      <point x="117" y="642" type="line"/>
      <point x="124" y="409" type="line"/>
      <point x="229" y="389" type="line" smooth="yes"/>
      <point x="272" y="381"/>
      <point x="291" y="371"/>
      <point x="291" y="336" type="curve" smooth="yes"/>
      <point x="291" y="47" type="line" smooth="yes"/>
      <point x="291" y="14"/>
      <point x="272" y="0"/>
      <point x="251" y="0" type="curve" smooth="yes"/>
    </contour>
  </outline>
</glyph>
<glyph name="uni01C7.alt" format="1">
  <advance width="544"/>
  <outline>
    <contour>
      <point x="40" y="0" type="line"/>
      <point x="242" y="0" type="line"/>
      <point x="242" y="69" type="line"/>
      <point x="129" y="82" type="line"/>
      <point x="114" y="105" type="line"/>
      <point x="114" y="710" type="line"/>
      <point x="40" y="710" type="line"/>
    </contour>
    <contour>
      <point x="353" y="0" type="curve"/>
      <point x="489" y="0" type="line"/>
      <point x="508" y="710" type="line"/>
      <point x="471" y="710" type="line"/>
      <point x="431" y="696" type="line"/>
      <point x="431" y="89" type="line"/>
      <point x="356" y="94" type="line"/>
      <point x="351" y="172" type="line"/>
      <point x="302" y="172" type="line"/>
      <point x="310" y="38" type="line" smooth="yes"/>
      <point x="311" y="19"/>
      <point x="334" y="0"/>
    </contour>
  </outline>
</glyph>
<glyph name="uni01EB.alt" format="1">
  <advance width="291"/>
  <outline>
    <contour>
      <point x="203" y="0" type="line"/>
      <point x="203" y="40" type="line"/>
      <point x="188" y="50" type="line"/>
      <point x="115" y="-95" type="line"/>
      <point x="203" y="-209" type="line"/>
      <point x="300" y="-146" type="line"/>
      <point x="284" y="-100" type="line"/>
      <point x="211" y="-145" type="line"/>
      <point x="177" y="-83" type="line"/>
    </contour>
    <component base="o.alt"/>
    <contour>
      <point x="143" y="0" type="move" name="_bottom"/>
    </contour>
    <contour>
      <point x="143" y="-226" type="move" name="bottom"/>
    </contour>
  </outline>
</glyph>
